<svg width="549" height="359" viewBox="0 0 549 359" fill="none" xmlns="http://www.w3.org/2000/svg">
<path fill-rule="evenodd" clip-rule="evenodd" d="M492.242 352C506.2 322.25 514 289.036 514 254C514 126.422 410.578 23 283 23C155.422 23 52 126.422 52 254C52 289.036 59.7998 322.25 73.7577 352H492.242Z" fill="url(#paint0_linear)"/>
<path d="M315.074 204.881L313.757 214.494L303.563 211.606C306.2 204.088 303.796 185.894 315.676 181.749C323.807 178.912 335.665 179.514 337.269 186.22C339.517 195.612 335.345 209.799 328.788 211.301C323.542 212.503 316.16 207.682 315.074 204.881Z" fill="#B08D64"/>
<path fill-rule="evenodd" clip-rule="evenodd" d="M313.932 213.216L315.074 204.881C316.16 207.683 323.542 212.503 328.788 211.301C334.844 209.914 338.865 197.706 337.674 188.449C336.27 196.979 331.536 209.223 321 204.5C319.4 204.5 315.667 202.5 314 201.5L311.5 212L313.932 213.216Z" fill="#9E7F5A"/>
<path d="M328.726 111.451C329.126 98.2507 341.893 84.284 348.226 78.9507H421.727L444.227 108.951C448.893 127.284 460.227 177.151 468.227 229.951C446.627 243.551 428.227 230.951 421.727 222.951C407.56 222.451 379.327 217.751 379.727 202.951C380.227 184.451 357.226 146.951 352.726 141.951C348.226 136.951 328.226 127.951 328.726 111.451Z" fill="#4A3826"/>
<path d="M377.345 195.745C385.224 195.745 390.72 207.096 393 210.1C382.55 212.706 366.5 301 338.5 301C298.642 285.448 295.168 230.752 303.928 204.868C307.898 206.589 315.937 210.045 316.333 210.1C344.5 341.5 352.963 195.745 377.345 195.745Z" fill="#7FB879"/>
<path opacity="0.34" fill-rule="evenodd" clip-rule="evenodd" d="M368.12 266.721C360.067 285.172 350.354 301 338.5 301C335.025 299.644 331.828 297.991 328.891 296.086C340.537 298.373 353.136 276.572 363.499 239.5C366.925 249.176 368.216 258.345 368.12 266.721Z" fill="#6CA967"/>
<path d="M386.194 214.535C382.223 210.35 400.499 198.292 400.5 174.5L427.253 154.979L440.5 174.207C434.852 182.625 426.761 196.766 413.311 212.893C396.498 233.051 391.158 219.766 386.194 214.535Z" fill="#A78761"/>
<path d="M346.726 108.451C342.326 94.0506 348.56 85.4506 352.226 82.9506C368.226 79.4506 405.127 74.5506 424.727 82.9506C449.227 93.4506 442.727 123.451 436.727 164.951C412.227 183.451 388.727 182.451 382.227 181.951C375.727 181.451 364.727 169.951 354.727 155.451C344.727 140.951 352.226 126.451 346.726 108.451Z" fill="#B08D64"/>
<g style="mix-blend-mode:multiply" opacity="0.1">
<path fill-rule="evenodd" clip-rule="evenodd" d="M411.095 79.3743C416.132 80.1072 420.78 81.2593 424.726 82.9505C447.442 92.6859 443.508 119.185 438.032 156.071C437.602 158.968 437.163 161.929 436.726 164.95C412.226 183.45 388.726 182.45 382.226 181.95C380.924 181.85 379.441 181.309 377.822 180.39C393.923 176.174 430.802 166.375 426.999 148.5C425.378 140.88 427.279 134.049 429.088 127.547C432.859 113.994 436.233 101.867 406.499 86.9999C407.298 82.9313 408.918 80.5277 411.095 79.3743Z" fill="black"/>
</g>
<path d="M381.631 160.951C376.134 160.951 370.78 154.417 368.227 146.951C377.227 149.951 381.631 153.951 398.227 146.951C395.799 151.061 388.329 160.951 381.631 160.951Z" fill="white"/>
<path d="M373.566 133.721C374.853 135.076 376.425 136.432 378.711 136.432C381.572 136.432 382.57 135.076 383.856 133.721" stroke="#D4A37F" stroke-opacity="0.3" stroke-width="3" stroke-linecap="round" stroke-linejoin="round" style="mix-blend-mode:multiply"/>
<path d="M373.566 132.721C374.853 134.076 376.425 135.432 378.711 135.432C381.572 135.432 382.57 134.076 383.856 132.721" stroke="#B08D64" stroke-opacity="0.3" stroke-width="3" stroke-linecap="round" stroke-linejoin="round" style="mix-blend-mode:multiply"/>
<path fill-rule="evenodd" clip-rule="evenodd" d="M362.643 100.489C366.094 99.6099 370.1 100.665 371.623 101.306C372.619 101.726 373.737 101.223 374.12 100.183C374.504 99.1428 373.958 98.0723 373.011 97.5397C368.343 94.9144 365.883 94.8545 361.353 96.0082C356.778 97.1734 353.038 101.795 350.11 105.48C349.432 106.334 349.549 107.616 350.373 108.343C351.196 109.07 352.081 108.498 352.759 107.644C355.147 104.638 358.89 101.445 362.643 100.489Z" fill="#2A2B2D"/>
<path d="M361.604 122.418C364.156 122.418 366.226 120.237 366.226 117.547C366.226 114.857 364.156 112.677 361.604 112.677C359.052 112.677 356.982 114.857 356.982 117.547C356.982 120.237 359.052 122.418 361.604 122.418Z" fill="#2A2B2D"/>
<path d="M363.02 117.214C363.803 117.214 364.437 116.546 364.437 115.721C364.437 114.897 363.803 114.229 363.02 114.229C362.238 114.229 361.604 114.897 361.604 115.721C361.604 116.546 362.238 117.214 363.02 117.214Z" fill="white"/>
<path d="M400.848 121.692C403.401 121.692 405.47 119.511 405.47 116.821C405.47 114.131 403.401 111.951 400.848 111.951C398.296 111.951 396.227 114.131 396.227 116.821C396.227 119.511 398.296 121.692 400.848 121.692Z" fill="#2A2B2D"/>
<path d="M402.264 116.488C403.047 116.488 403.681 115.82 403.681 114.995C403.681 114.171 403.047 113.502 402.264 113.502C401.482 113.502 400.848 114.171 400.848 114.995C400.848 115.82 401.482 116.488 402.264 116.488Z" fill="white"/>
<path d="M359.728 96.9505C339.228 85.4505 347.228 72.4505 351.228 66.9505C428.727 -25.5496 483.227 77.9508 479.727 124.951L496.727 137.451C545.227 143.451 538.727 170.451 526.727 190.451C535.727 210.951 543.227 239.451 483.227 237.951C423.227 236.451 432.727 144.451 436.227 128.951C439.727 113.451 440.727 107.951 425.227 93.4505C410.227 110.951 380.228 108.451 359.728 96.9505Z" fill="url(#paint1_linear)"/>
<path d="M492.595 37.175L489.558 63.4933L499.643 62.4935C503.419 55.478 503.399 43.8177 503.179 35.5745C502.904 25.2706 497.198 9.51594 490.742 3.98642C485.393 -0.595239 475.343 13.3738 474.152 18.7435C472.961 24.1131 478.189 30.5676 480.394 34.4683C482.6 38.369 489.794 38.2607 492.595 37.175Z" fill="#B08D64"/>
<path fill-rule="evenodd" clip-rule="evenodd" d="M493.902 7.55273C497.698 18.5434 502.586 36.3861 497.501 59.5C498.954 60.9528 500.06 60.7502 500.944 59.5057C503.411 52.4727 503.371 42.7346 503.18 35.5745C502.951 26.9968 498.958 14.6417 493.902 7.55273Z" fill="#9E7F5A"/>
<path d="M504.846 57.9007L486.172 55.5469C456 180 406.195 218.689 394.181 216.706C384.571 215.12 394.181 200.5 397.499 191C383.775 200.645 358.49 222.165 352.12 234.632C344.158 250.216 346.81 253.817 351.895 265.623C355.963 275.068 355.277 322.376 354.426 344.85C379.39 340.535 425.569 334.044 437.393 332C422.999 315.5 429.999 265.623 437.393 225.982C492.439 182.775 501.631 101.925 504.846 57.9007Z" fill="#73B06E"/>
<path fill-rule="evenodd" clip-rule="evenodd" d="M492.931 134.061C492.268 135.205 491.463 137.147 490.5 140C477.5 178.5 437.501 211 417.501 226C397.501 241 396.001 255.5 403.001 263C408.601 269 408.334 311.167 407.501 331.5H436.972C423.138 314.514 430.072 265.231 437.393 225.982C467.331 202.483 483.705 167.849 492.931 134.061Z" fill="#6CA967"/>
<rect x="120.672" y="175.951" width="187.633" height="118.139" rx="1" fill="#D5D5D5"/>
<rect x="120.672" y="317.255" width="187.633" height="11.5823" rx="1" fill="#D5D5D5"/>
<path d="M199.327 235.752C199.386 234.692 200.262 233.863 201.324 233.863H227.654C228.715 233.863 229.592 234.692 229.651 235.752L234.179 317.255H194.799L199.327 235.752Z" fill="#A9A9A9"/>
<rect x="44.2285" y="328.837" width="477.19" height="16.2152" rx="1" fill="#997A5C"/>
<rect x="62.7598" y="345.053" width="440.127" height="13.8987" rx="1" fill="#B09579"/>
<g filter="url(#filter0_d)">
<rect x="71.2285" y="26.2158" width="97" height="117" transform="rotate(-13.2696 71.2285 26.2158)" fill="#F7F7F7"/>
<rect x="78.076" y="31.3057" width="86.0089" height="103.949" transform="rotate(-13.2696 78.076 31.3057)" stroke="#A6D0E5"/>
<path d="M155.838 101.813C156.218 103.426 149.555 106.377 140.954 108.406C132.353 110.434 125.073 110.771 124.693 109.158C124.312 107.546 130.976 104.594 139.577 102.566C148.177 100.537 155.458 100.2 155.838 101.813Z" fill="#A6D0E5"/>
<path d="M103.061 74.0687C102.569 71.9818 103.855 69.8927 105.933 69.4025L154.858 57.8646C156.936 57.3744 159.02 58.6689 159.512 60.7558L165.305 85.3173C165.797 87.4042 164.511 89.4934 162.433 89.9835L113.508 101.521C111.429 102.012 109.346 100.717 108.853 98.6303L103.061 74.0687Z" fill="white"/>
<path fill-rule="evenodd" clip-rule="evenodd" d="M102.085 74.2777C101.468 71.6647 103.077 69.0491 105.678 68.4357L154.657 56.885C157.258 56.2716 159.866 57.8927 160.483 60.5057L166.285 85.1086C166.901 87.7216 165.292 90.3371 162.691 90.9505L113.712 102.501C111.111 103.115 108.503 101.494 107.887 98.8806L102.085 74.2777ZM106.125 70.3283C104.564 70.6963 103.599 72.2656 103.968 73.8335L109.77 98.4363C110.14 100.004 111.705 100.977 113.266 100.609L162.245 89.058C163.805 88.69 164.771 87.1207 164.401 85.5528L158.599 60.95C158.229 59.3821 156.664 58.4095 155.104 58.7775L106.125 70.3283Z" fill="#469CD6"/>
<path d="M129.478 59.7405C126.544 60.4324 124.506 62.6905 124.557 65.0109L136.236 62.2565C135.245 60.1577 132.413 59.0485 129.478 59.7405Z" fill="#A6D0E5"/>
<path fill-rule="evenodd" clip-rule="evenodd" d="M102.085 74.2777C101.468 71.6647 103.077 69.0491 105.678 68.4357L154.657 56.885C157.258 56.2716 159.866 57.8927 160.483 60.5057L166.285 85.1086C166.901 87.7216 165.292 90.3371 162.691 90.9505L113.712 102.501C111.111 103.115 108.503 101.494 107.887 98.8806L102.085 74.2777ZM106.125 70.3283C104.564 70.6963 103.599 72.2656 103.968 73.8335L109.77 98.4363C110.14 100.004 111.705 100.977 113.266 100.609L162.245 89.058C163.805 88.69 164.771 87.1207 164.401 85.5528L158.599 60.95C158.229 59.3821 156.664 58.4095 155.104 58.7775L106.125 70.3283Z" fill="#469CD6"/>
<path fill-rule="evenodd" clip-rule="evenodd" d="M112.371 75.0298C112.25 74.5167 112.57 74.0021 113.086 73.8804L116.823 72.999C117.339 72.8773 117.856 73.1946 117.977 73.7077C118.098 74.2208 117.778 74.7354 117.262 74.8571L113.524 75.7385C113.008 75.8602 112.492 75.5429 112.371 75.0298ZM120.78 73.0467C120.659 72.5336 120.979 72.0189 121.495 71.8972L125.233 71.0158C125.749 70.8941 126.265 71.2114 126.386 71.7245C126.507 72.2376 126.187 72.7523 125.671 72.874L121.933 73.7554C121.417 73.8771 120.901 73.5598 120.78 73.0467ZM129.189 71.0635C129.068 70.5504 129.389 70.0358 129.905 69.9141L133.642 69.0327C134.158 68.911 134.674 69.2283 134.795 69.7414C134.916 70.2545 134.596 70.7691 134.08 70.8908L130.343 71.7722C129.827 71.8939 129.31 71.5766 129.189 71.0635ZM136.664 69.3007C136.543 68.7876 136.863 68.273 137.379 68.1513L141.117 67.2698C141.633 67.1482 142.149 67.4654 142.27 67.9786C142.391 68.4917 142.071 69.0063 141.555 69.128L137.818 70.0094C137.302 70.1311 136.785 69.8138 136.664 69.3007ZM145.074 67.3175C144.953 66.8044 145.273 66.2898 145.789 66.1681L149.526 65.2867C150.042 65.165 150.559 65.4823 150.68 65.9954C150.801 66.5085 150.481 67.0231 149.964 67.1448L146.227 68.0262C145.711 68.1479 145.195 67.8306 145.074 67.3175ZM110.167 82.4147C110.046 81.9016 110.366 81.3869 110.882 81.2652L114.62 80.3838C115.136 80.2621 115.652 80.5794 115.773 81.0925C115.894 81.6056 115.574 82.1203 115.058 82.242L111.32 83.1234C110.804 83.2451 110.288 82.9278 110.167 82.4147ZM118.576 80.4315C118.455 79.9184 118.775 79.4038 119.291 79.2821L123.029 78.4007C123.545 78.279 124.061 78.5963 124.182 79.1094C124.303 79.6225 123.983 80.1371 123.467 80.2588L119.73 81.1402C119.214 81.2619 118.697 80.9446 118.576 80.4315ZM126.986 78.4483C126.864 77.9352 127.185 77.4206 127.701 77.2989L131.438 76.4175C131.954 76.2958 132.471 76.6131 132.592 77.1262C132.713 77.6393 132.392 78.1539 131.876 78.2756L128.139 79.157C127.623 79.2787 127.107 78.9614 126.986 78.4483ZM134.46 76.6855C134.339 76.1724 134.66 75.6578 135.176 75.5361L138.913 74.6547C139.429 74.533 139.946 74.8503 140.067 75.3634C140.188 75.8765 139.867 76.3911 139.351 76.5128L135.614 77.3942C135.098 77.5159 134.581 77.1986 134.46 76.6855ZM142.87 74.7023C142.749 74.1892 143.069 73.6746 143.585 73.5529L147.323 72.6715C147.839 72.5498 148.355 72.8671 148.476 73.3802C148.597 73.8933 148.277 74.4079 147.761 74.5296L144.023 75.411C143.507 75.5327 142.991 75.2154 142.87 74.7023ZM151.746 72.609C151.625 72.0959 151.946 71.5813 152.462 71.4596L155.732 70.6883C156.248 70.5666 156.764 70.8839 156.885 71.397C157.006 71.9101 156.686 72.4248 156.17 72.5465L152.9 73.3177C152.384 73.4394 151.867 73.1221 151.746 72.609ZM111.701 88.9181C111.58 88.405 111.9 87.8904 112.416 87.7687L116.153 86.8873C116.669 86.7656 117.186 87.0829 117.307 87.596C117.428 88.1091 117.108 88.6237 116.592 88.7454L112.854 89.6268C112.338 89.7485 111.822 89.4312 111.701 88.9181ZM120.11 86.9349C119.989 86.4218 120.309 85.9072 120.825 85.7855L124.563 84.9041C125.079 84.7824 125.595 85.0997 125.716 85.6128C125.837 86.1259 125.517 86.6405 125.001 86.7622L121.263 87.6436C120.747 87.7653 120.231 87.448 120.11 86.9349ZM128.519 84.9517C128.398 84.4386 128.718 83.924 129.234 83.8023L132.972 82.9209C133.488 82.7992 134.004 83.1165 134.125 83.6296C134.246 84.1427 133.926 84.6573 133.41 84.779L129.673 85.6604C129.157 85.7821 128.64 85.4648 128.519 84.9517ZM135.994 83.1889C135.873 82.6758 136.193 82.1612 136.709 82.0395L140.447 81.1581C140.963 81.0364 141.479 81.3537 141.6 81.8668C141.721 82.3799 141.401 82.8945 140.885 83.0162L137.148 83.8976C136.632 84.0193 136.115 83.702 135.994 83.1889ZM144.403 81.2057C144.282 80.6926 144.603 80.178 145.119 80.0563L148.856 79.1749C149.372 79.0532 149.889 79.3705 150.01 79.8836C150.131 80.3967 149.81 80.9113 149.294 81.033L145.557 81.9145C145.041 82.0361 144.524 81.7189 144.403 81.2057ZM153.28 79.1124C153.159 78.5993 153.479 78.0847 153.995 77.963L157.266 77.1918C157.782 77.0701 158.298 77.3874 158.419 77.9005C158.54 78.4136 158.22 78.9282 157.704 79.0499L154.433 79.8211C153.917 79.9428 153.401 79.6255 153.28 79.1124ZM113.015 94.4924C112.894 93.9793 113.214 93.4647 113.73 93.343L116.534 92.682C117.05 92.5603 117.566 92.8776 117.687 93.3907C117.808 93.9038 117.488 94.4184 116.972 94.5401L114.169 95.2011C113.653 95.3228 113.136 95.0055 113.015 94.4924ZM121.424 92.5093C121.303 91.9962 121.624 91.4815 122.14 91.3599L150.171 84.7493C150.687 84.6276 151.203 84.9449 151.324 85.458C151.445 85.9711 151.125 86.4857 150.609 86.6074L122.578 93.218C122.062 93.3397 121.545 93.0224 121.424 92.5093ZM155.062 84.5766C154.941 84.0635 155.261 83.5489 155.777 83.4272L158.58 82.7661C159.096 82.6444 159.613 82.9617 159.734 83.4748C159.855 83.9879 159.534 84.5025 159.018 84.6242L156.215 85.2853C155.699 85.407 155.183 85.0897 155.062 84.5766Z" fill="#469CD6"/>
<path fill-rule="evenodd" clip-rule="evenodd" d="M129.642 60.4355C127.203 61.0108 125.531 62.9916 125.605 65.0558C125.622 65.5315 125.187 65.9578 124.632 66.0081C124.078 66.0584 123.614 65.7136 123.597 65.2379C123.493 62.3464 125.831 59.5729 129.249 58.767C132.666 57.9611 135.997 59.3975 137.196 62.031C137.393 62.4641 137.133 62.9796 136.614 63.1824C136.096 63.3851 135.515 63.1983 135.318 62.7652C134.463 60.8852 132.081 59.8603 129.642 60.4355Z" fill="#469CD6"/>
<path fill-rule="evenodd" clip-rule="evenodd" d="M123.739 35.4079C124.257 35.2858 124.775 35.6058 124.897 36.1227C125.629 39.2239 123.704 42.3316 120.598 43.0641L104.196 46.9321C102.902 47.2373 102.1 48.5322 102.405 49.8244C102.71 51.1166 104.006 51.9167 105.3 51.6115L147.476 41.665C149.805 41.1157 152.138 42.5559 152.687 44.8818C153.235 47.2077 151.792 49.5385 149.462 50.0878L133.06 53.9559C130.99 54.4442 129.707 56.516 130.194 58.5835C130.316 59.1003 129.995 59.6183 129.478 59.7404C128.96 59.8624 128.442 59.5424 128.32 59.0255C127.588 55.9244 129.513 52.8166 132.619 52.0842L149.021 48.2161C150.315 47.9109 151.117 46.616 150.812 45.3238C150.508 44.0317 149.212 43.2316 147.917 43.5368L105.741 53.4832C103.412 54.0325 101.079 52.5924 100.53 50.2665C99.9818 47.9406 101.425 45.6097 103.755 45.0604L120.157 41.1923C122.227 40.7041 123.51 38.6322 123.023 36.5648C122.901 36.0479 123.222 35.5299 123.739 35.4079Z" fill="#469CD6"/>
</g>
<g filter="url(#filter1_d)">
<rect x="267.928" y="1" width="63.7666" height="76.9144" transform="rotate(18.6751 267.928 1)" fill="#F7F7F7"/>
<rect x="270.472" y="7.44945" width="54.8155" height="66.3239" transform="rotate(18.6751 270.472 7.44945)" stroke="#A6D0E5"/>
<path d="M288.67 72.7567C288.334 73.7526 283.678 73.0786 278.271 71.2513C272.865 69.4239 268.755 67.1352 269.092 66.1392C269.428 65.1433 274.084 65.8173 279.49 67.6447C284.897 69.4721 289.007 71.7608 288.67 72.7567Z" fill="#A6D0E5"/>
<path d="M304.604 32.0665L282.285 24.5225C279.69 23.6454 276.875 25.0381 275.998 27.6332L275.353 29.5421L307.07 40.2624L307.715 38.3535C308.592 35.7584 307.199 32.9436 304.604 32.0665Z" fill="#A6D0E5"/>
<path d="M271.563 56.2397L293.883 63.7836C296.478 64.6608 299.293 63.2681 300.17 60.673L307.069 40.2623L275.352 29.542L268.453 49.9526C267.576 52.5477 268.968 55.3626 271.563 56.2397Z" fill="white"/>
<path fill-rule="evenodd" clip-rule="evenodd" d="M275.411 27.4346C276.397 24.5152 279.564 22.9484 282.483 23.9352L304.803 31.4791C307.723 32.4659 309.289 35.6325 308.303 38.552L300.759 60.8716C299.772 63.7911 296.605 65.3579 293.686 64.3711L271.366 56.8271C268.447 55.8404 266.88 52.6737 267.867 49.7542L275.411 27.4346ZM282.086 25.1099C279.816 24.3424 277.353 25.561 276.585 27.8317L276.139 29.1533L306.681 39.4765L307.128 38.155C307.895 35.8843 306.677 33.4213 304.406 32.6538L282.086 25.1099ZM306.284 40.6512L275.742 30.328L269.041 50.1513C268.274 52.422 269.492 54.8849 271.763 55.6524L294.083 63.1964C296.353 63.9639 298.816 62.7453 299.584 60.4745L306.284 40.6512Z" fill="#469CD6"/>
<path fill-rule="evenodd" clip-rule="evenodd" d="M279.331 27.4511C279.44 27.1267 279.792 26.9527 280.117 27.0623L283.053 28.0549C283.378 28.1646 283.552 28.5164 283.442 28.8408C283.333 29.1652 282.981 29.3393 282.656 29.2296L279.72 28.237C279.395 28.1274 279.221 27.7755 279.331 27.4511ZM285.204 29.4364C285.314 29.112 285.666 28.9379 285.99 29.0475L288.927 30.0402C289.251 30.1498 289.425 30.5017 289.316 30.826C289.206 31.1504 288.854 31.3245 288.53 31.2149L285.593 30.2223C285.269 30.1126 285.095 29.7608 285.204 29.4364Z" fill="#469CD6"/>
<path fill-rule="evenodd" clip-rule="evenodd" d="M285.322 40.139C285.474 40.4459 285.348 40.8178 285.041 40.9697L277.738 44.583L281.352 51.8861C281.503 52.193 281.378 52.5649 281.071 52.7168C280.764 52.8686 280.392 52.7429 280.24 52.436L276.352 44.5772C276.2 44.2703 276.326 43.8984 276.633 43.7466L284.491 39.8582C284.798 39.7064 285.17 39.8321 285.322 40.139Z" fill="#469CD6"/>
<path fill-rule="evenodd" clip-rule="evenodd" d="M292.126 42.4389C291.819 42.5908 291.694 42.9627 291.845 43.2696L295.459 50.5727L288.156 54.1861C287.849 54.3379 287.723 54.7098 287.875 55.0167C288.027 55.3236 288.399 55.4493 288.706 55.2975L296.564 51.4092C296.871 51.2573 296.997 50.8854 296.845 50.5785L292.957 42.7197C292.805 42.4128 292.433 42.2871 292.126 42.4389Z" fill="#469CD6"/>
</g>
<g filter="url(#filter2_d)">
<rect x="30" y="200.142" width="37.8308" height="45.631" transform="rotate(-39.885 30 200.142)" fill="#F7F7F7"/>
<rect x="33.3834" y="200.733" width="33.3958" height="40.3846" transform="rotate(-39.885 33.3834 200.733)" stroke="#A6D0E5" stroke-width="0.5"/>
<ellipse cx="68.0478" cy="215.989" rx="6.19262" ry="1.14075" transform="rotate(-39.885 68.0478 215.989)" fill="#A6D0E5"/>
<path d="M53.5867 217.225L45.4299 207.465C44.0133 205.77 44.2391 203.247 45.9343 201.831L58.3276 191.474C60.0228 190.057 62.5454 190.283 63.962 191.978L72.1187 201.739L73.8293 200.309C74.479 201.772 74.0799 203.489 72.8513 204.516L56.1897 218.44C54.9611 219.466 53.2007 219.554 51.876 218.655L53.5867 217.225Z" fill="#A6D0E5"/>
<path d="M46.362 205.682L55.0129 216.034L70.6938 202.93L62.0429 192.578C61.6887 192.154 61.0581 192.098 60.6343 192.452L46.488 204.274C46.0642 204.628 46.0078 205.259 46.362 205.682Z" fill="white"/>
<circle cx="61.89" cy="201.087" r="3.34401" transform="rotate(-39.885 61.89 201.087)" fill="white" stroke="#3295DB" stroke-linecap="round" stroke-linejoin="round"/>
<path fill-rule="evenodd" clip-rule="evenodd" d="M45.384 202.775C44.2818 203.696 44.135 205.336 45.0561 206.438L53.6335 216.702L54.4888 215.987L45.9114 205.723C45.5166 205.251 45.5796 204.548 46.0519 204.153L60.5924 192.002C61.0648 191.607 61.7678 191.67 62.1625 192.143L70.7399 202.406L71.5953 201.692L63.0179 191.428C62.0968 190.326 60.4565 190.179 59.3543 191.1L45.384 202.775ZM72.1655 201.215L63.5881 190.951C62.4038 189.534 60.2949 189.345 58.8778 190.53L44.9075 202.204C43.4903 203.389 43.3016 205.498 44.4859 206.915L53.0632 217.179L51.6377 218.37C51.5482 218.445 51.499 218.557 51.5049 218.674C51.5107 218.79 51.5708 218.897 51.6673 218.962L52.0502 219.222C53.2855 220.061 54.9271 219.979 56.0727 219.022L73.4447 204.504C74.5903 203.547 74.9625 201.946 74.3567 200.581L74.1689 200.158C74.1216 200.052 74.027 199.973 73.9134 199.947C73.7998 199.921 73.6805 199.949 73.591 200.024L72.1655 201.215ZM52.4923 218.624C53.4502 219.259 54.7128 219.19 55.5962 218.451L72.9682 203.934C73.8516 203.196 74.1437 201.965 73.6894 200.91L52.4923 218.624ZM70.1697 202.883L61.5923 192.619C61.4607 192.462 61.2264 192.441 61.069 192.572L46.5285 204.724C46.371 204.855 46.35 205.089 46.4816 205.247L55.059 215.511L70.1697 202.883ZM52.418 197.865C52.2864 197.707 52.3074 197.473 52.4649 197.341L52.4706 197.337C52.628 197.205 52.8623 197.226 52.9939 197.384C53.1255 197.541 53.1045 197.775 52.9471 197.907L52.9414 197.912C52.7839 198.043 52.5496 198.022 52.418 197.865ZM61.144 212.363C61.0124 212.205 61.0334 211.971 61.1908 211.839L65.1823 208.504C65.3398 208.372 65.5741 208.393 65.7057 208.55C65.8373 208.708 65.8163 208.942 65.6589 209.074L61.6673 212.409C61.5099 212.541 61.2756 212.52 61.144 212.363ZM68.5568 206.168C68.4252 206.01 68.4462 205.776 68.6036 205.644L68.6093 205.64C68.7668 205.508 69.0011 205.529 69.1327 205.686C69.2643 205.844 69.2433 206.078 69.0859 206.21L69.0802 206.215C68.9227 206.346 68.6884 206.325 68.5568 206.168ZM69.9766 204.981C69.845 204.824 69.866 204.589 70.0235 204.458L70.0292 204.453C70.1866 204.321 70.421 204.342 70.5525 204.5C70.6841 204.657 70.6632 204.892 70.5057 205.023L70.5 205.028C70.3425 205.16 70.1082 205.139 69.9766 204.981ZM71.1171 204.028C70.9855 203.871 71.0064 203.636 71.1639 203.505L71.1696 203.5C71.3271 203.368 71.5614 203.389 71.693 203.547C71.8246 203.704 71.8036 203.939 71.6461 204.07L71.6404 204.075C71.483 204.207 71.2486 204.186 71.1171 204.028Z" fill="#3295DB"/>
<path fill-rule="evenodd" clip-rule="evenodd" d="M51.8587 205.333C51.8067 205.249 51.8243 205.139 51.9 205.076L52.7534 204.363C52.8281 204.301 52.9371 204.302 53.0105 204.366L53.2008 204.531C53.2759 204.597 53.3816 204.612 53.4749 204.577C53.5652 204.543 53.6567 204.514 53.7491 204.49C53.8462 204.464 53.9243 204.39 53.9472 204.292L54.0033 204.053C54.0258 203.957 54.1156 203.892 54.2138 203.901L55.3215 204C55.4185 204.009 55.4948 204.086 55.5016 204.183L55.5181 204.421C55.525 204.521 55.5898 204.607 55.6813 204.648C55.7728 204.689 55.8625 204.735 55.9499 204.786C56.0367 204.836 56.1443 204.838 56.2295 204.785L56.4247 204.664C56.5086 204.612 56.618 204.63 56.6813 204.706L57.3944 205.559C57.4568 205.634 57.4558 205.743 57.3918 205.816L57.2495 205.98C57.1835 206.056 57.1687 206.163 57.2048 206.256C57.2435 206.357 57.2764 206.459 57.3035 206.563C57.3289 206.66 57.4035 206.738 57.5015 206.761L57.7046 206.809C57.8007 206.831 57.8655 206.921 57.8568 207.019L57.7576 208.127C57.7489 208.224 57.6711 208.3 57.574 208.307L57.3734 208.321C57.2732 208.328 57.1872 208.393 57.1463 208.485C57.101 208.587 57.0495 208.686 56.9921 208.783C56.9404 208.87 56.9374 208.979 56.9908 209.065L57.0932 209.23C57.1452 209.314 57.1275 209.424 57.0518 209.487L56.1985 210.2C56.1238 210.262 56.0148 210.261 55.9413 210.197L55.7908 210.066C55.7155 210.001 55.6095 209.986 55.516 210.021C55.4106 210.061 55.3034 210.094 55.1951 210.121C55.0963 210.146 55.0165 210.221 54.9932 210.32L54.9486 210.51C54.926 210.606 54.8363 210.671 54.738 210.662L53.6303 210.563C53.5333 210.555 53.457 210.477 53.4503 210.38L53.4355 210.166C53.4286 210.067 53.365 209.982 53.2748 209.94C53.1777 209.896 53.0828 209.845 52.9903 209.79C52.903 209.737 52.7933 209.734 52.7067 209.787L52.5272 209.899C52.4433 209.951 52.3339 209.933 52.2706 209.857L51.5575 209.004C51.4951 208.929 51.4961 208.82 51.5601 208.747L51.7144 208.569C51.7793 208.495 51.7948 208.39 51.7609 208.297C51.7262 208.202 51.6967 208.106 51.6724 208.009C51.6477 207.91 51.5726 207.83 51.4736 207.807L51.2473 207.754C51.1512 207.732 51.0863 207.642 51.0951 207.544L51.1943 206.436C51.2029 206.339 51.2808 206.263 51.3779 206.256L51.6286 206.238C51.7274 206.232 51.8125 206.168 51.8541 206.078C51.8942 205.992 51.9388 205.907 51.9877 205.824C52.039 205.737 52.0419 205.628 51.9886 205.542L51.8587 205.333Z" fill="#DAEAF5"/>
<path fill-rule="evenodd" clip-rule="evenodd" d="M51.5428 205.529C51.3933 205.287 51.444 204.973 51.6617 204.791L52.515 204.078C52.7298 203.898 53.0431 203.902 53.2543 204.085C53.2544 204.085 53.2543 204.085 53.2543 204.085L53.3973 204.21C53.4643 204.186 53.5319 204.165 53.5999 204.145L53.6414 203.968C53.7062 203.692 53.9642 203.505 54.2469 203.531C54.2469 203.531 54.2468 203.531 54.2469 203.531L55.3546 203.63C55.6333 203.655 55.8527 203.878 55.8722 204.158L55.8843 204.332C55.9529 204.364 56.0207 204.399 56.0873 204.436L56.2288 204.349C56.2288 204.349 56.2288 204.349 56.2288 204.349C56.4699 204.199 56.7843 204.25 56.9663 204.467L57.6794 205.321C57.8589 205.535 57.8559 205.849 57.672 206.06L57.5713 206.176C57.6 206.254 57.6256 206.334 57.6481 206.414L57.7893 206.447C58.0655 206.512 58.252 206.77 58.2268 207.052L58.1276 208.16C58.1276 208.16 58.1276 208.16 58.1276 208.16C58.1027 208.439 57.8789 208.658 57.5995 208.678L57.4623 208.687C57.4249 208.767 57.3842 208.846 57.3401 208.924L57.4088 209.034C57.5584 209.276 57.5077 209.59 57.29 209.772L56.4367 210.485C56.2219 210.665 55.9085 210.661 55.6974 210.478C55.6973 210.478 55.6974 210.478 55.6974 210.478L55.5943 210.388C55.5104 210.418 55.4256 210.444 55.3402 210.467L55.3102 210.595C55.2455 210.871 54.9875 211.058 54.7048 211.032C54.7048 211.032 54.7049 211.032 54.7048 211.032L53.5971 210.933C53.3184 210.908 53.099 210.685 53.0795 210.405L53.0691 210.254C52.9941 210.218 52.9202 210.179 52.8477 210.137L52.723 210.214C52.723 210.214 52.723 210.214 52.723 210.214C52.4819 210.364 52.1674 210.313 51.9855 210.096L51.2723 209.242C51.0928 209.028 51.0959 208.714 51.2797 208.503L51.3932 208.372C51.3993 208.39 51.4055 208.407 51.4118 208.425C51.4034 208.402 51.4026 208.362 51.4341 208.326L51.3932 208.372C51.3683 208.3 51.346 208.228 51.3263 208.154L51.3888 208.169C51.3408 208.158 51.318 208.123 51.3119 208.099C51.3165 208.117 51.3213 208.136 51.3263 208.154L51.1624 208.116C50.8862 208.051 50.6998 207.793 50.7249 207.511L50.8241 206.403C50.8491 206.124 51.0728 205.905 51.3521 205.885L51.5406 205.872C51.5325 205.889 51.5246 205.906 51.5168 205.922C51.5272 205.9 51.555 205.871 51.6028 205.868L51.5406 205.872C51.5713 205.808 51.6042 205.746 51.6392 205.684L51.6728 205.738C51.647 205.696 51.6549 205.656 51.6676 205.635C51.658 205.651 51.6485 205.667 51.6392 205.684L51.5428 205.529ZM57.5862 206.4C57.5862 206.399 57.5863 206.4 57.5862 206.4V206.4ZM52.2537 205.265L52.3043 205.346C52.4366 205.56 52.423 205.817 52.3077 206.012C52.2651 206.085 52.2262 206.159 52.1913 206.234C52.0978 206.436 51.8997 206.592 51.6543 206.609L51.5511 206.616L51.4785 207.427L51.5583 207.445C51.8043 207.503 51.9772 207.697 52.0327 207.918C52.0539 208.003 52.0796 208.087 52.1099 208.17C52.1861 208.379 52.1558 208.628 51.9947 208.813L51.9374 208.879L52.4591 209.504L52.5107 209.472C52.7261 209.338 52.986 209.353 53.1822 209.472C53.2627 209.52 53.3455 209.564 53.4301 209.603C53.6328 209.696 53.789 209.894 53.8061 210.14L53.8106 210.206L54.6211 210.279L54.6314 210.235C54.6891 209.989 54.8832 209.816 55.1054 209.76C55.1998 209.737 55.2932 209.708 55.385 209.673C55.5951 209.594 55.8476 209.623 56.0347 209.786L56.0736 209.82L56.698 209.298L56.675 209.261C56.5424 209.047 56.5563 208.789 56.6724 208.594C56.7225 208.509 56.7673 208.423 56.8068 208.334C56.8987 208.127 57.0987 207.968 57.3476 207.95L57.4006 207.947L57.4732 207.136L57.4167 207.123C57.1733 207.066 57.0012 206.876 56.944 206.657C56.9204 206.567 56.8917 206.478 56.858 206.39C56.7768 206.179 56.8051 205.924 56.9691 205.736L57.0144 205.684L56.4926 205.059L56.4253 205.101C56.2136 205.232 55.9585 205.22 55.7635 205.107C55.6873 205.063 55.6092 205.023 55.5294 204.987C55.3237 204.895 55.1645 204.695 55.1473 204.447L55.1411 204.357L54.3306 204.284L54.3089 204.377C54.2519 204.62 54.0622 204.792 53.8437 204.849C53.7632 204.87 53.6835 204.896 53.6048 204.925C53.3951 205.003 53.1434 204.974 52.9569 204.812L52.8781 204.743L52.2537 205.265ZM52.3312 209.583C52.3311 209.583 52.3313 209.583 52.3312 209.583V209.583Z" fill="#3295DB"/>
<path d="M55.6414 206.307C56.1797 206.951 56.0939 207.91 55.4497 208.448C54.8056 208.986 53.847 208.9 53.3087 208.256C52.7704 207.612 52.8562 206.653 53.5003 206.115C54.1445 205.577 55.1031 205.663 55.6414 206.307Z" fill="white"/>
<path fill-rule="evenodd" clip-rule="evenodd" d="M53.7405 206.4C53.2538 206.807 53.189 207.531 53.5957 208.018C54.0024 208.505 54.7267 208.569 55.2134 208.163C55.7001 207.756 55.7649 207.032 55.3582 206.545C54.9514 206.058 54.2272 205.993 53.7405 206.4ZM53.0255 208.494C52.3556 207.693 52.4623 206.5 53.264 205.83C54.0656 205.16 55.2585 205.267 55.9284 206.069C56.5983 206.87 56.4915 208.063 55.6899 208.733C54.8883 209.403 53.6954 209.296 53.0255 208.494Z" fill="#3295DB"/>
<path fill-rule="evenodd" clip-rule="evenodd" d="M59.9839 198.806C58.7242 199.858 58.5564 201.733 59.6091 202.993C60.6618 204.252 62.5363 204.42 63.796 203.368C65.0557 202.315 65.2235 200.44 64.1708 199.181C63.1181 197.921 61.2435 197.753 59.9839 198.806ZM59.0389 203.469C57.723 201.895 57.9327 199.551 59.5073 198.236C61.0819 196.92 63.4251 197.129 64.741 198.704C66.0569 200.279 65.8471 202.622 64.2725 203.938C62.6979 205.254 60.3547 205.044 59.0389 203.469Z" fill="#3295DB"/>
<path fill-rule="evenodd" clip-rule="evenodd" d="M60.5163 201.75L59.0857 202.946C58.9282 203.077 58.9073 203.312 59.0389 203.469C59.1704 203.627 59.4048 203.648 59.5622 203.516L60.9928 202.321C61.5327 202.922 62.0981 203.409 62.6063 203.723C62.8971 203.902 63.1876 204.036 63.4564 204.093C63.72 204.148 64.0296 204.141 64.2725 203.938C64.5154 203.735 64.5778 203.431 64.5701 203.162C64.5622 202.887 64.4818 202.578 64.3568 202.26C64.1385 201.704 63.7595 201.061 63.2636 200.423L64.6942 199.227C64.8516 199.096 64.8726 198.861 64.741 198.704C64.6094 198.547 64.3751 198.526 64.2176 198.657L62.7871 199.853C62.2472 199.251 61.6818 198.764 61.1736 198.451C60.8828 198.271 60.5923 198.137 60.3235 198.08C60.0599 198.025 59.7502 198.033 59.5073 198.236C59.2644 198.439 59.202 198.742 59.2098 199.011C59.2176 199.286 59.2981 199.595 59.423 199.914C59.6414 200.469 60.0204 201.112 60.5163 201.75ZM61.0869 201.274L62.2165 200.33C61.7188 199.778 61.2134 199.348 60.7833 199.083C60.5313 198.927 60.3234 198.84 60.1706 198.808C60.0955 198.792 60.0453 198.792 60.0154 198.796C60.0012 198.798 59.9929 198.801 59.9889 198.803C59.9853 198.805 59.9841 198.806 59.9839 198.806L59.9839 198.806C59.9836 198.806 59.9824 198.807 59.9802 198.81C59.9779 198.814 59.9736 198.822 59.969 198.835C59.9594 198.864 59.9504 198.913 59.9526 198.99C59.9571 199.146 60.0064 199.366 60.1147 199.642C60.2995 200.112 60.6328 200.686 61.0869 201.274ZM62.693 200.9L61.5634 201.844C62.0611 202.395 62.5665 202.825 62.9965 203.09C63.2486 203.246 63.4564 203.333 63.6093 203.366C63.6844 203.381 63.7346 203.381 63.7644 203.377C63.7787 203.375 63.7869 203.372 63.7909 203.37C63.7946 203.369 63.7958 203.368 63.796 203.368L63.796 203.367C63.7963 203.367 63.7975 203.366 63.7997 203.363C63.802 203.359 63.8063 203.352 63.8109 203.338C63.8205 203.31 63.8295 203.26 63.8273 203.183C63.8228 203.027 63.7735 202.807 63.6652 202.532C63.4804 202.061 63.1471 201.487 62.693 200.9Z" fill="#3295DB"/>
<path fill-rule="evenodd" clip-rule="evenodd" d="M58.2023 201.266C58.1406 201.07 58.2493 200.862 58.445 200.8C59.016 200.62 59.7965 200.174 60.5797 199.519C61.3629 198.865 61.9408 198.176 62.2193 197.646C62.3148 197.464 62.5394 197.394 62.7211 197.49C62.9027 197.585 62.9726 197.81 62.8771 197.992C62.5387 198.635 61.8852 199.396 61.0562 200.089C60.2272 200.782 59.3621 201.29 58.6684 201.509C58.4727 201.57 58.264 201.462 58.2023 201.266ZM63.2005 202.655C62.4561 203.277 61.8956 203.932 61.6025 204.452C61.5018 204.631 61.2752 204.694 61.0964 204.593C60.9176 204.493 60.8543 204.266 60.9551 204.087C61.3051 203.466 61.9341 202.745 62.724 202.085C63.553 201.392 64.4181 200.884 65.1118 200.666C65.3075 200.604 65.5162 200.713 65.5779 200.908C65.6396 201.104 65.5309 201.313 65.3352 201.374C64.7642 201.554 63.9837 202.001 63.2005 202.655Z" fill="#3295DB"/>
</g>
<defs>
<filter id="filter0_d" x="41.2285" y="3.95117" width="181.266" height="196.141" filterUnits="userSpaceOnUse" color-interpolation-filters="sRGB">
<feFlood flood-opacity="0" result="BackgroundImageFix"/>
<feColorMatrix in="SourceAlpha" type="matrix" values="0 0 0 0 0 0 0 0 0 0 0 0 0 0 0 0 0 0 127 0"/>
<feOffset dy="30"/>
<feGaussianBlur stdDeviation="15"/>
<feColorMatrix type="matrix" values="0 0 0 0 0.113725 0 0 0 0 0.556863 0 0 0 0 0.756863 0 0 0 0.15 0"/>
<feBlend mode="normal" in2="BackgroundImageFix" result="effect1_dropShadow"/>
<feBlend mode="normal" in="SourceGraphic" in2="effect1_dropShadow" result="shape"/>
</filter>
<filter id="filter1_d" x="213.299" y="1" width="145.037" height="153.283" filterUnits="userSpaceOnUse" color-interpolation-filters="sRGB">
<feFlood flood-opacity="0" result="BackgroundImageFix"/>
<feColorMatrix in="SourceAlpha" type="matrix" values="0 0 0 0 0 0 0 0 0 0 0 0 0 0 0 0 0 0 127 0"/>
<feOffset dy="30"/>
<feGaussianBlur stdDeviation="15"/>
<feColorMatrix type="matrix" values="0 0 0 0 0.113725 0 0 0 0 0.556863 0 0 0 0 0.756863 0 0 0 0.15 0"/>
<feBlend mode="normal" in2="BackgroundImageFix" result="effect1_dropShadow"/>
<feBlend mode="normal" in="SourceGraphic" in2="effect1_dropShadow" result="shape"/>
</filter>
<filter id="filter2_d" x="0" y="175.883" width="118.29" height="119.273" filterUnits="userSpaceOnUse" color-interpolation-filters="sRGB">
<feFlood flood-opacity="0" result="BackgroundImageFix"/>
<feColorMatrix in="SourceAlpha" type="matrix" values="0 0 0 0 0 0 0 0 0 0 0 0 0 0 0 0 0 0 127 0"/>
<feOffset dy="30"/>
<feGaussianBlur stdDeviation="15"/>
<feColorMatrix type="matrix" values="0 0 0 0 0.113725 0 0 0 0 0.556863 0 0 0 0 0.756863 0 0 0 0.15 0"/>
<feBlend mode="normal" in2="BackgroundImageFix" result="effect1_dropShadow"/>
<feBlend mode="normal" in="SourceGraphic" in2="effect1_dropShadow" result="shape"/>
</filter>
<linearGradient id="paint0_linear" x1="283" y1="23" x2="283" y2="485" gradientUnits="userSpaceOnUse">
<stop stop-color="white" stop-opacity="0"/>
<stop offset="1" stop-color="white" stop-opacity="0.5"/>
</linearGradient>
<linearGradient id="paint1_linear" x1="441.229" y1="84.9512" x2="440.805" y2="238.007" gradientUnits="userSpaceOnUse">
<stop stop-color="#4B3219"/>
<stop offset="1" stop-color="#88623C"/>
</linearGradient>
</defs>
</svg>
