<svg width="114" height="31" viewBox="0 0 114 31" version="1.1" xmlns="http://www.w3.org/2000/svg" xmlns:xlink="http://www.w3.org/1999/xlink">
<title>Teaching.com Logo</title>
<g id="Canvas" transform="translate(-4378 -2705)">
<g id="Teaching.com Logo">
<g id="Group">
<g id="Vector">
<use xlink:href="#path0_fill" transform="translate(4403.73 2715.79)" fill="#4a4a4a"/>
</g>
<g id="Vector">
<use xlink:href="#path1_fill" transform="translate(4411.98 2718.98)" fill="#4a4a4a"/>
</g>
<g id="Vector">
<use xlink:href="#path2_fill" transform="translate(4420.52 2718.98)" fill="#4a4a4a"/>
</g>
<g id="Vector">
<use xlink:href="#path3_fill" transform="translate(4428.55 2718.98)" fill="#4a4a4a"/>
</g>
<g id="Vector">
<use xlink:href="#path4_fill" transform="translate(4437.48 2715.57)" fill="#4a4a4a"/>
</g>
<g id="Vector">
<use xlink:href="#path5_fill" transform="translate(4446.12 2715.38)" fill="#4a4a4a"/>
</g>
<g id="Vector">
<use xlink:href="#path6_fill" transform="translate(4450.42 2719.01)" fill="#4a4a4a"/>
</g>
<g id="Vector">
<use xlink:href="#path7_fill" transform="translate(4458.77 2719.09)" fill="#4a4a4a"/>
</g>
</g>
<g id="Subtract">
<use xlink:href="#path8_fill" transform="translate(4469 2718.11)" fill="#4a4a4a"/>
</g>
<g id="Vector">
<use xlink:href="#path9_fill" transform="translate(4378 2705)" fill="#4a4a4a"/>
</g>
</g>
</g>
<defs>
<path id="path0_fill" d="M 5.71807 2.07589L 5.71807 11.1821L 3.52522 11.1821L 3.52522 2.07589L -8.47095e-07 2.07589L -8.47095e-07 0L 9.24329 0L 9.24329 2.07589L 5.71807 2.07589Z"/>
<path id="path1_fill" d="M 7.52232 5.75714C 7.13371 7.08572 5.88462 8.22054 3.9971 8.22054C 1.85976 8.22054 4.23548e-07 6.69821 4.23548e-07 4.06875C 4.23548e-07 1.60536 1.832 0 3.83055 0C 6.21771 0 7.6611 1.52232 7.6611 4.01339C 7.6611 4.31786 7.63335 4.62232 7.63335 4.65L 2.08182 4.65C 2.13734 5.67411 2.99782 6.42143 4.05261 6.42143C 5.02413 6.42143 5.57928 5.92321 5.8291 5.23125L 7.52232 5.75714ZM 5.57928 3.21071C 5.55153 2.43571 5.05189 1.68839 3.83055 1.68839C 2.748 1.68839 2.13734 2.51875 2.08182 3.21071L 5.57928 3.21071Z"/>
<path id="path2_fill" d="M 2.27667 3.51518L 4.19195 3.23839C 4.63607 3.18304 4.77486 2.96161 4.77486 2.68482C 4.77486 2.13125 4.3585 1.68839 3.47025 1.68839C 2.55425 1.68839 2.05461 2.26964 1.9991 2.93393L 0.139337 2.54643C 0.278125 1.32857 1.38843 0 3.47025 0C 5.94068 0 6.85668 1.38393 6.85668 2.93393L 6.85668 6.75357C 6.85668 7.16875 6.9122 7.72232 6.93996 7.97143L 5.02468 7.97143C 4.96917 7.77768 4.94141 7.33482 4.94141 7.03036C 4.5528 7.63929 3.80335 8.19286 2.66528 8.19286C 0.999825 8.19286 0.000548848 7.08571 0.000548848 5.86786C -0.0272088 4.48393 0.999822 3.70893 2.27667 3.51518ZM 4.77486 4.84375L 4.77486 4.48393L 3.02613 4.76071C 2.49874 4.84375 2.05462 5.14821 2.05462 5.72946C 2.05462 6.17232 2.3877 6.61518 3.05389 6.61518C 3.94213 6.64286 4.77486 6.22768 4.77486 4.84375Z"/>
<path id="path3_fill" d="M 2.08182 4.09643C 2.08182 5.50804 2.99782 6.28303 4.08037 6.28303C 5.16292 6.28303 5.69031 5.56339 5.85686 4.98214L 7.71662 5.59107C 7.35577 6.89196 6.16219 8.19286 4.08037 8.19286C 1.80425 8.19286 1.69419e-06 6.44911 1.69419e-06 4.09643C 1.69419e-06 1.71607 1.77649 -3.93336e-15 4.02486 -3.93336e-15C 6.13444 -3.93336e-15 7.32801 1.30089 7.6611 2.60179L 5.77358 3.23839C 5.57928 2.60179 5.1074 1.9375 4.05261 1.9375C 2.99782 1.9375 2.08182 2.7125 2.08182 4.09643Z"/>
<path id="path4_fill" d="M 2.10958 11.3759L 8.47096e-07 11.3759L 8.47096e-07 2.11171e-07L 2.10958 2.11171e-07L 2.10958 4.29018C 2.60922 3.68125 3.4697 3.43214 4.21916 3.43214C 6.18995 3.43214 7.10595 4.78839 7.10595 6.50446L 7.10595 11.3759L 4.99637 11.3759L 4.99637 6.86429C 4.99637 6.00625 4.58001 5.31429 3.55298 5.31429C 2.66473 5.31429 2.13734 5.97857 2.10958 6.83661L 2.10958 11.3759L 2.10958 11.3759Z"/>
<path id="path5_fill" d="M 1.30461 0C 2.02631 0 2.60922 0.58125 2.60922 1.30089C 2.60922 1.99286 2.05407 2.57411 1.30461 2.57411C 0.582912 2.57411 -1.69419e-06 1.99286 -1.69419e-06 1.30089C 0.0277559 0.58125 0.610669 0 1.30461 0ZM 0.277575 11.5696L 0.277575 3.81964L 2.38716 3.81964L 2.38716 11.5696L 0.277575 11.5696Z"/>
<path id="path6_fill" d="M 2.10958 7.94375L -1.69419e-06 7.94375L -1.69419e-06 0.19375L 2.02631 0.19375L 2.02631 1.1625C 2.49819 0.359821 3.44194 -4.22342e-07 4.27467 -4.22342e-07C 6.18995 -4.22342e-07 7.07819 1.35625 7.07819 3.07232L 7.07819 7.94375L 4.96861 7.94375L 4.96861 3.43214C 4.96861 2.57411 4.55225 1.88214 3.52522 1.88214C 2.60922 1.88214 2.08182 2.60179 2.08182 3.4875L 2.08182 7.94375L 2.10958 7.94375Z"/>
<path id="path7_fill" d="M 1.88752 7.77768C 2.0263 8.63571 2.72024 9.24464 3.69176 9.24464C 5.02413 9.24464 5.77358 8.58036 5.77358 7.08571L 5.77358 6.53214C 5.46825 7.03036 4.7188 7.52857 3.60849 7.52857C 1.52667 7.52857 0 5.95089 0 3.76429C 0 1.71607 1.47115 4.22342e-07 3.60849 4.22342e-07C 4.82983 4.22342e-07 5.55153 0.525893 5.8291 1.05179L 5.8291 0.138393L 7.85541 0.138393L 7.85541 7.05804C 7.85541 9.18929 6.68959 11.1268 3.77504 11.1268C 1.6377 11.1268 0.222061 9.79821 0 8.33125L 1.88752 7.77768ZM 5.80134 3.76429C 5.80134 2.57411 4.96861 1.79911 3.96934 1.79911C 2.91455 1.79911 2.10958 2.54643 2.10958 3.76429C 2.10958 4.98214 2.88679 5.72946 3.96934 5.72946C 5.05188 5.72946 5.80134 4.95446 5.80134 3.76429Z"/>
<path id="path8_fill" fill-rule="evenodd" d="M 0.00640959 3.42133L 0.00640959 3.46722C 6.19298e-05 5.80072 -0.00628573 8.19721 0.012269 10.5563C 8.14557 10.6393 22.9957 10.8054 22.9957 10.8054L 22.857 0.010682C 22.8648 0.0182504 21.7017 0.0155648 19.8619 0.0111703L 19.7071 0.010682C 14.7408 -0.00176915 5.13043 -0.0256949 0.012269 0.093934C 0.012269 1.15131 0.00933927 2.23309 0.00640959 3.32953L 0.00640959 3.37543L 0.00640959 3.42133ZM 2.98395 6.32147C 3.40045 6.32147 3.73346 6.6535 3.73346 7.06879C 3.73346 7.48407 3.40045 7.8161 2.98395 7.8161C 2.56744 7.8161 2.23444 7.48407 2.23444 7.06879C 2.23444 6.6535 2.56744 6.32147 2.98395 6.32147ZM 6.34284 6.87518C 5.78766 6.87518 5.31598 6.4599 5.31598 5.74042C 5.31598 5.02069 5.78766 4.60541 6.315 4.60541C 6.84284 4.60541 7.09235 4.96527 7.20368 5.29755L 8.17487 4.96527C 8.00836 4.30097 7.39752 3.60907 6.28766 3.60907C 5.12164 3.60907 4.20563 4.49481 4.20563 5.74042C 4.20563 6.95819 5.14948 7.87152 6.34284 7.87152C 7.42535 7.87152 8.06403 7.17963 8.23053 6.51532L 7.25885 6.18329C 7.17584 6.51532 6.89801 6.87518 6.34284 6.87518ZM 12.7828 5.74042C 12.7828 6.98578 11.8668 7.87152 10.6729 7.87152C 9.47955 7.87152 8.56354 6.95819 8.56354 5.74042C 8.56354 4.49481 9.47955 3.60907 10.6729 3.60907C 11.8668 3.60907 12.7828 4.49481 12.7828 5.74042ZM 11.6724 5.74042C 11.6724 4.9931 11.1729 4.60541 10.6456 4.60541C 10.1177 4.60541 9.61823 4.9931 9.61823 5.74042C 9.61823 6.48773 10.1177 6.87518 10.6456 6.87518C 11.1729 6.87518 11.6724 6.48773 11.6724 5.74042ZM 13.4766 3.71967L 13.4766 7.76093L 13.4766 7.78851L 14.587 7.78851L 14.587 5.43597C 14.587 4.9931 14.8643 4.63324 15.3365 4.63324C 15.836 4.63324 16.0582 4.93768 16.0582 5.38056L 16.0582 7.76093L 17.1407 7.76093L 17.1407 5.40814C 17.1407 4.96527 17.418 4.60541 17.8902 4.60541C 18.3897 4.60541 18.6119 4.90985 18.6119 5.35272L 18.6119 7.73309L 19.6666 7.73309L 19.6666 5.13129C 19.6666 4.05194 18.9449 3.60907 18.1954 3.60907C 17.668 3.60907 17.2515 3.77509 16.9185 4.27338C 16.7242 3.85809 16.2803 3.60907 15.7252 3.60907C 15.2808 3.60907 14.7535 3.83051 14.5313 4.21796L 14.5313 3.71967L 13.4766 3.71967Z"/>
<path id="path9_fill" d="M 11.0198 0C 4.94086 0 0 4.92679 0 10.9884C 0 14.9464 2.13734 18.5723 5.57928 20.5375L 5.57928 26.9036L 10.992 31L 16.4048 26.9036L 16.4048 20.5375C 19.8467 18.6 21.984 14.9464 21.984 10.9884C 22.0118 4.92679 17.0709 0 11.0198 0ZM 15.4055 23.333L 7.88316 23.333L 7.88316 24.3571L 15.4055 24.3571L 15.4055 25.2429L 7.88316 25.2429L 7.88316 26.267L 15.4055 26.267L 15.4055 26.4054L 10.992 29.7268L 6.57856 26.4054L 6.57856 22.4473L 15.3777 22.4473L 15.3777 23.333L 15.4055 23.333ZM 15.6831 19.7902L 15.4055 19.9286L 15.4055 21.4232L 12.3799 21.4232L 12.3799 11.6804C 12.3799 11.6804 12.3799 11.2375 12.4077 10.7393C 14.545 10.9054 16.1827 10.4348 16.9321 9.77054C 17.4595 9.3 17.3763 8.82946 17.293 8.66339C 17.0709 8.10982 16.3492 7.83304 15.0724 7.83304C 13.7955 7.83304 12.7963 8.22054 12.1578 8.96786C 11.9635 9.18929 11.8247 9.41071 11.7137 9.65982C 10.4646 9.46607 9.04898 9.05089 7.57783 8.27589C 7.55007 8.27589 7.55007 8.24821 7.52232 8.24821C 7.4668 7.72232 6.99492 7.30714 6.46753 7.30714C 5.88462 7.30714 5.38498 7.77768 5.38498 8.38661C 5.38498 8.96786 5.85686 9.46607 6.46753 9.46607C 6.7451 9.46607 6.96716 9.35536 7.16147 9.21696C 8.66038 9.99196 10.1038 10.4348 11.4084 10.6562C 11.3529 11.4312 11.3529 12.5107 11.3529 12.5107L 11.3529 21.4509L 10.77 21.4509L 10.77 11.5696C 10.77 11.2929 10.5479 11.0714 10.2703 11.0714C 9.99274 11.0714 9.77068 11.2929 9.77068 11.5696L 9.77068 21.4232L 6.60631 21.4232L 6.60631 19.9286L 6.32874 19.7902C 3.05334 18.0464 1.02703 14.6696 1.02703 10.9884C 1.02703 5.50804 5.49601 1.02411 11.0198 1.02411C 16.5158 1.02411 21.0125 5.48036 21.0125 10.9884C 21.0125 14.6696 18.9585 18.0464 15.6831 19.7902ZM 12.824 9.74286C 12.8518 9.6875 12.9073 9.65982 12.9351 9.60446C 13.3792 9.07857 14.1009 8.82946 15.1001 8.82946C 15.8218 8.82946 16.1549 8.94018 16.2937 8.99554C 16.1827 9.10625 15.9606 9.24464 15.5165 9.41071C 14.8503 9.65982 13.9343 9.79821 12.824 9.74286ZM 6.88389 8.33125C 6.88389 8.58036 6.68959 8.74643 6.46753 8.74643C 6.21771 8.74643 6.05116 8.55268 6.05116 8.33125C 6.05116 8.08214 6.24546 7.91607 6.46753 7.91607C 6.68959 7.91607 6.88389 8.10982 6.88389 8.33125Z"/>
</defs>
</svg>
